<svg width="201" height="15" viewBox="0 0 201 15" fill="none" xmlns="http://www.w3.org/2000/svg">
<path d="M6.54 3.16H1.56C0.72 3.2 0.286667 2.82667 0.26 2.04V1.78C0.286667 0.993333 0.72 0.619999 1.56 0.659999H14.58C15.42 0.619999 15.8533 0.993333 15.88 1.78V2.04C15.8533 2.82667 15.42 3.2 14.58 3.16H9.62V12.7C9.64667 13.5667 9.23333 14 8.38 14H7.76C6.90667 14 6.5 13.5667 6.54 12.7V3.16ZM17.0834 12.7V5.92C17.0568 5.50667 17.1434 5.18667 17.3434 4.96C17.5568 4.73333 17.8568 4.62 18.2434 4.62H18.5634C18.9501 4.62 19.2434 4.73333 19.4434 4.96C19.6568 5.18667 19.7501 5.50667 19.7234 5.92V12.7C19.7501 13.1133 19.6568 13.4333 19.4434 13.66C19.2434 13.8867 18.9501 14 18.5634 14H18.2434C17.8568 14 17.5568 13.8867 17.3434 13.66C17.1434 13.4333 17.0568 13.1133 17.0834 12.7ZM17.0834 1.72V1.68C17.0968 1.36 17.2101 1.1 17.4234 0.899999C17.6368 0.686666 17.9101 0.586667 18.2434 0.6H18.5634C18.8968 0.586667 19.1701 0.686666 19.3834 0.899999C19.5968 1.1 19.7101 1.36 19.7234 1.68V1.72C19.7101 2.05333 19.5968 2.32 19.3834 2.52C19.1701 2.72 18.8968 2.81333 18.5634 2.8H18.2434C17.9101 2.81333 17.6368 2.72 17.4234 2.52C17.2101 2.32 17.0968 2.05333 17.0834 1.72ZM24.347 5.92V6.5C24.6137 5.72667 25.0537 5.19333 25.667 4.9C26.2804 4.59333 27.247 4.44 28.567 4.44C29.807 4.44 30.767 4.60667 31.447 4.94C32.1404 5.26 32.6204 5.78667 32.887 6.52C33.127 5.76 33.5804 5.22667 34.247 4.92C34.927 4.6 35.9537 4.44 37.327 4.44C39.1404 4.44 40.4137 4.74667 41.147 5.36C41.8804 5.96 42.247 7.01333 42.247 8.52V12.7C42.2737 13.1133 42.1804 13.4333 41.967 13.66C41.767 13.8867 41.4737 14 41.087 14H40.767C40.3804 14 40.0804 13.8867 39.867 13.66C39.667 13.4333 39.5804 13.1133 39.607 12.7V8.7C39.607 7.86 39.407 7.29333 39.007 7C38.607 6.69333 37.847 6.54 36.727 6.54C35.4604 6.54 34.5737 6.73333 34.067 7.12C33.5737 7.49333 33.327 8.15333 33.327 9.1V12.7C33.3537 13.1133 33.2604 13.4333 33.047 13.66C32.847 13.8867 32.5537 14 32.167 14H31.847C31.4604 14 31.1604 13.8867 30.947 13.66C30.747 13.4333 30.6604 13.1133 30.687 12.7V8.8C30.687 7.88 30.4937 7.27333 30.107 6.98C29.7204 6.67333 28.9404 6.52 27.767 6.52C26.5404 6.52 25.6737 6.70667 25.167 7.08C24.6604 7.44 24.407 8.06 24.407 8.94V12.7C24.4337 13.1133 24.3404 13.4333 24.127 13.66C23.927 13.8867 23.6337 14 23.247 14H22.927C22.5404 14 22.2404 13.8867 22.027 13.66C21.827 13.4333 21.7404 13.1133 21.767 12.7V5.92C21.727 5.08 22.107 4.64667 22.907 4.62H23.207C24.007 4.64667 24.387 5.08 24.347 5.92ZM54.9227 9.82H46.6027C46.6293 10.9933 46.8627 11.7267 47.3027 12.02C47.756 12.3 48.876 12.44 50.6627 12.44C51.7293 12.44 52.496 12.3333 52.9627 12.12C53.0827 12.0667 53.176 12.0133 53.2427 11.96C53.3093 11.8933 53.4227 11.7467 53.5827 11.52C53.8227 11.2267 54.1693 11.08 54.6227 11.08H54.9427C55.2093 11.08 55.4427 11.18 55.6427 11.38C55.856 11.58 55.9627 11.8067 55.9627 12.06C55.9627 12.54 55.756 12.94 55.3427 13.26C54.916 13.5933 54.3427 13.8267 53.6227 13.96C52.916 14.0933 51.8893 14.16 50.5427 14.16C48.1827 14.16 46.6293 13.9933 45.8827 13.66C45.1493 13.3267 44.636 12.84 44.3427 12.2C44.0493 11.56 43.9027 10.6133 43.9027 9.36C43.9027 7.46667 44.2827 6.16667 45.0427 5.46C45.456 5.07333 46.036 4.81333 46.7827 4.68C47.5427 4.53333 48.7627 4.46 50.4427 4.46C52.1093 4.46 53.3093 4.58 54.0427 4.82C54.776 5.04667 55.336 5.48 55.7227 6.12C56.0693 6.73333 56.2427 7.55333 56.2427 8.58C56.2427 9.00667 56.136 9.32 55.9227 9.52C55.7093 9.72 55.376 9.82 54.9227 9.82ZM46.6027 8.26H53.6427C53.6427 7.78 53.5627 7.38667 53.4027 7.08C53.216 6.74667 52.896 6.51333 52.4427 6.38C52.0027 6.24667 51.3027 6.18 50.3427 6.18C48.836 6.18 47.8493 6.3 47.3827 6.54C46.8627 6.84667 46.6027 7.38 46.6027 8.14V8.26ZM61.2702 9.92V12.7C61.2968 13.5667 60.8902 14 60.0502 14H59.4302C58.5902 14 58.1835 13.5667 58.2102 12.7V1.96C58.1968 1.50667 58.2968 1.17333 58.5102 0.96C58.7235 0.746666 59.0568 0.646666 59.5102 0.659999H68.6302C70.1368 0.659999 71.1568 0.746666 71.6902 0.919999C72.5168 1.17333 73.0968 1.62 73.4302 2.26C73.7635 2.88667 73.9302 3.87333 73.9302 5.22C73.9302 6.24667 73.8435 7.06 73.6702 7.66C73.4968 8.26 73.2035 8.73333 72.7902 9.08C72.4435 9.38667 71.9835 9.60667 71.4102 9.74C70.8368 9.86 70.0302 9.92 68.9902 9.92H61.2702ZM61.2702 7.44H68.1302C69.1968 7.44 69.9102 7.3 70.2702 7.02C70.6435 6.74 70.8302 6.19333 70.8302 5.38C70.8302 4.47333 70.6568 3.87333 70.3102 3.58C69.9768 3.28667 69.2968 3.14 68.2702 3.14H61.2702V7.44ZM75.5248 12.7V5.92C75.4982 5.50667 75.5848 5.18667 75.7848 4.96C75.9982 4.73333 76.2982 4.62 76.6848 4.62H77.0048C77.3915 4.62 77.6848 4.73333 77.8848 4.96C78.0982 5.18667 78.1915 5.50667 78.1648 5.92V12.7C78.1915 13.1133 78.0982 13.4333 77.8848 13.66C77.6848 13.8867 77.3915 14 77.0048 14H76.6848C76.2982 14 75.9982 13.8867 75.7848 13.66C75.5848 13.4333 75.4982 13.1133 75.5248 12.7ZM75.5248 1.72V1.68C75.5382 1.36 75.6515 1.1 75.8648 0.899999C76.0782 0.686666 76.3515 0.586667 76.6848 0.6H77.0048C77.3382 0.586667 77.6115 0.686666 77.8248 0.899999C78.0382 1.1 78.1515 1.36 78.1648 1.68V1.72C78.1515 2.05333 78.0382 2.32 77.8248 2.52C77.6115 2.72 77.3382 2.81333 77.0048 2.8H76.6848C76.3515 2.81333 76.0782 2.72 75.8648 2.52C75.6515 2.32 75.5382 2.05333 75.5248 1.72ZM90.8484 9.82H82.5284C82.5551 10.9933 82.7884 11.7267 83.2284 12.02C83.6818 12.3 84.8018 12.44 86.5884 12.44C87.6551 12.44 88.4218 12.3333 88.8884 12.12C89.0084 12.0667 89.1018 12.0133 89.1684 11.96C89.2351 11.8933 89.3484 11.7467 89.5084 11.52C89.7484 11.2267 90.0951 11.08 90.5484 11.08H90.8684C91.1351 11.08 91.3684 11.18 91.5684 11.38C91.7818 11.58 91.8884 11.8067 91.8884 12.06C91.8884 12.54 91.6818 12.94 91.2684 13.26C90.8418 13.5933 90.2684 13.8267 89.5484 13.96C88.8418 14.0933 87.8151 14.16 86.4684 14.16C84.1084 14.16 82.5551 13.9933 81.8084 13.66C81.0751 13.3267 80.5618 12.84 80.2684 12.2C79.9751 11.56 79.8284 10.6133 79.8284 9.36C79.8284 7.46667 80.2084 6.16667 80.9684 5.46C81.3818 5.07333 81.9618 4.81333 82.7084 4.68C83.4684 4.53333 84.6884 4.46 86.3684 4.46C88.0351 4.46 89.2351 4.58 89.9684 4.82C90.7018 5.04667 91.2618 5.48 91.6484 6.12C91.9951 6.73333 92.1684 7.55333 92.1684 8.58C92.1684 9.00667 92.0618 9.32 91.8484 9.52C91.6351 9.72 91.3018 9.82 90.8484 9.82ZM82.5284 8.26H89.5684C89.5684 7.78 89.4884 7.38667 89.3284 7.08C89.1418 6.74667 88.8218 6.51333 88.3684 6.38C87.9284 6.24667 87.2284 6.18 86.2684 6.18C84.7618 6.18 83.7751 6.3 83.3084 6.54C82.7884 6.84667 82.5284 7.38 82.5284 8.14V8.26ZM104.696 8.08H104.276C103.956 8.08 103.709 8.02667 103.536 7.92C103.376 7.81333 103.209 7.6 103.036 7.28C102.849 6.96 102.523 6.74 102.056 6.62C101.603 6.5 100.856 6.44 99.8159 6.44C98.8559 6.44 98.1559 6.48667 97.7159 6.58C97.2893 6.67333 96.9626 6.85333 96.7359 7.12C96.3759 7.52 96.1959 8.25333 96.1959 9.32C96.1959 10.4667 96.4159 11.24 96.8559 11.64C97.0826 11.8533 97.4293 12 97.8959 12.08C98.3626 12.1467 99.1493 12.18 100.256 12.18C101.669 12.18 102.549 11.9867 102.896 11.6C102.949 11.5333 103.109 11.3067 103.376 10.92C103.616 10.5867 103.963 10.4267 104.416 10.44H104.816C105.136 10.44 105.396 10.54 105.596 10.74C105.809 10.9267 105.916 11.1733 105.916 11.48C105.916 12 105.696 12.4933 105.256 12.96C105.043 13.2133 104.749 13.4333 104.376 13.62C103.603 13.9933 102.189 14.18 100.136 14.18C97.6293 14.18 95.9693 13.9533 95.1559 13.5C94.5693 13.1667 94.1493 12.6733 93.8959 12.02C93.6426 11.3667 93.5159 10.4667 93.5159 9.32C93.5159 7.12 94.0493 5.72667 95.1159 5.14C95.9426 4.67333 97.5893 4.44 100.056 4.44C101.683 4.44 102.896 4.56 103.696 4.8C104.496 5.02667 105.083 5.42667 105.456 6C105.683 6.34667 105.796 6.69333 105.796 7.04C105.796 7.34667 105.689 7.6 105.476 7.8C105.276 7.98667 105.016 8.08 104.696 8.08ZM118.243 9.82H109.923C109.95 10.9933 110.183 11.7267 110.623 12.02C111.076 12.3 112.196 12.44 113.983 12.44C115.05 12.44 115.816 12.3333 116.283 12.12C116.403 12.0667 116.496 12.0133 116.563 11.96C116.63 11.8933 116.743 11.7467 116.903 11.52C117.143 11.2267 117.49 11.08 117.943 11.08H118.263C118.53 11.08 118.763 11.18 118.963 11.38C119.176 11.58 119.283 11.8067 119.283 12.06C119.283 12.54 119.076 12.94 118.663 13.26C118.236 13.5933 117.663 13.8267 116.943 13.96C116.236 14.0933 115.21 14.16 113.863 14.16C111.503 14.16 109.95 13.9933 109.203 13.66C108.47 13.3267 107.956 12.84 107.663 12.2C107.37 11.56 107.223 10.6133 107.223 9.36C107.223 7.46667 107.603 6.16667 108.363 5.46C108.776 5.07333 109.356 4.81333 110.103 4.68C110.863 4.53333 112.083 4.46 113.763 4.46C115.43 4.46 116.63 4.58 117.363 4.82C118.096 5.04667 118.656 5.48 119.043 6.12C119.39 6.73333 119.563 7.55333 119.563 8.58C119.563 9.00667 119.456 9.32 119.243 9.52C119.03 9.72 118.696 9.82 118.243 9.82ZM109.923 8.26H116.963C116.963 7.78 116.883 7.38667 116.723 7.08C116.536 6.74667 116.216 6.51333 115.763 6.38C115.323 6.24667 114.623 6.18 113.663 6.18C112.156 6.18 111.17 6.3 110.703 6.54C110.183 6.84667 109.923 7.38 109.923 8.14V8.26ZM128.59 9.92V12.7C128.617 13.5667 128.21 14 127.37 14H126.75C125.91 14 125.504 13.5667 125.53 12.7V1.96C125.517 1.50667 125.617 1.17333 125.83 0.96C126.044 0.746666 126.377 0.646666 126.83 0.659999H135.95C137.457 0.659999 138.477 0.746666 139.01 0.919999C139.837 1.17333 140.417 1.62 140.75 2.26C141.084 2.88667 141.25 3.87333 141.25 5.22C141.25 6.24667 141.164 7.06 140.99 7.66C140.817 8.26 140.524 8.73333 140.11 9.08C139.764 9.38667 139.304 9.60667 138.73 9.74C138.157 9.86 137.35 9.92 136.31 9.92H128.59ZM128.59 7.44H135.45C136.517 7.44 137.23 7.3 137.59 7.02C137.964 6.74 138.15 6.19333 138.15 5.38C138.15 4.47333 137.977 3.87333 137.63 3.58C137.297 3.28667 136.617 3.14 135.59 3.14H128.59V7.44ZM151.848 12.78V12.5C151.635 13.1667 151.248 13.6133 150.688 13.84C150.128 14.0667 149.135 14.18 147.708 14.18C145.401 14.18 143.961 14.0133 143.388 13.68C142.655 13.28 142.288 12.4733 142.288 11.26C142.288 10.7267 142.335 10.2933 142.428 9.96C142.535 9.61333 142.695 9.31333 142.908 9.06C143.135 8.80667 143.475 8.62 143.928 8.5C144.395 8.38 144.941 8.29333 145.568 8.24C146.195 8.18667 147.001 8.16 147.988 8.16C149.308 8.16 150.221 8.24 150.728 8.4C151.235 8.56 151.588 8.88667 151.788 9.38V8.36C151.788 7.41333 151.601 6.82 151.228 6.58C150.868 6.34 149.975 6.22 148.548 6.22C147.375 6.22 146.601 6.25333 146.228 6.32C146.015 6.37333 145.868 6.42667 145.788 6.48C145.721 6.53333 145.581 6.68667 145.368 6.94C145.115 7.22 144.781 7.35333 144.368 7.34H144.028C143.748 7.34 143.501 7.24 143.288 7.04C143.088 6.84 142.988 6.60667 142.988 6.34C142.988 5.91333 143.168 5.56667 143.528 5.3C143.955 4.98 144.495 4.76 145.148 4.64C145.815 4.50667 146.768 4.44 148.008 4.44C149.928 4.44 151.268 4.51333 152.028 4.66C152.801 4.79333 153.381 5.07333 153.768 5.5C154.048 5.80667 154.235 6.14667 154.328 6.52C154.421 6.88 154.468 7.44 154.468 8.2V12.7C154.495 13.1133 154.401 13.4333 154.188 13.66C153.988 13.8867 153.701 14 153.328 14H152.988C152.628 14 152.341 13.8933 152.128 13.68C151.928 13.4533 151.835 13.1533 151.848 12.78ZM151.148 10.04C150.695 9.86667 149.761 9.78 148.348 9.78C146.935 9.78 146.008 9.86667 145.568 10.04C145.128 10.2133 144.908 10.5733 144.908 11.12C144.908 11.4933 145.001 11.78 145.188 11.98C145.388 12.1667 145.715 12.2933 146.168 12.36C146.488 12.4 147.255 12.42 148.468 12.42C149.895 12.42 150.828 12.3133 151.268 12.1C151.641 11.9 151.828 11.5467 151.828 11.04C151.828 10.5333 151.601 10.2 151.148 10.04ZM156.552 12.7V1.92C156.512 1.06667 156.899 0.626666 157.712 0.6H158.032C158.846 0.626666 159.232 1.06667 159.192 1.92V12.7C159.219 13.1133 159.126 13.4333 158.912 13.66C158.712 13.8867 158.419 14 158.032 14H157.712C157.326 14 157.026 13.8867 156.812 13.66C156.612 13.4333 156.526 13.1133 156.552 12.7ZM170.356 12.78V12.5C170.142 13.1667 169.756 13.6133 169.196 13.84C168.636 14.0667 167.642 14.18 166.216 14.18C163.909 14.18 162.469 14.0133 161.896 13.68C161.162 13.28 160.796 12.4733 160.796 11.26C160.796 10.7267 160.842 10.2933 160.936 9.96C161.042 9.61333 161.202 9.31333 161.416 9.06C161.642 8.80667 161.982 8.62 162.436 8.5C162.902 8.38 163.449 8.29333 164.076 8.24C164.702 8.18667 165.509 8.16 166.496 8.16C167.816 8.16 168.729 8.24 169.236 8.4C169.742 8.56 170.096 8.88667 170.296 9.38V8.36C170.296 7.41333 170.109 6.82 169.736 6.58C169.376 6.34 168.482 6.22 167.056 6.22C165.882 6.22 165.109 6.25333 164.736 6.32C164.522 6.37333 164.376 6.42667 164.296 6.48C164.229 6.53333 164.089 6.68667 163.876 6.94C163.622 7.22 163.289 7.35333 162.876 7.34H162.536C162.256 7.34 162.009 7.24 161.796 7.04C161.596 6.84 161.496 6.60667 161.496 6.34C161.496 5.91333 161.676 5.56667 162.036 5.3C162.462 4.98 163.002 4.76 163.656 4.64C164.322 4.50667 165.276 4.44 166.516 4.44C168.436 4.44 169.776 4.51333 170.536 4.66C171.309 4.79333 171.889 5.07333 172.276 5.5C172.556 5.80667 172.742 6.14667 172.836 6.52C172.929 6.88 172.976 7.44 172.976 8.2V12.7C173.002 13.1133 172.909 13.4333 172.696 13.66C172.496 13.8867 172.209 14 171.836 14H171.496C171.136 14 170.849 13.8933 170.636 13.68C170.436 13.4533 170.342 13.1533 170.356 12.78ZM169.656 10.04C169.202 9.86667 168.269 9.78 166.856 9.78C165.442 9.78 164.516 9.86667 164.076 10.04C163.636 10.2133 163.416 10.5733 163.416 11.12C163.416 11.4933 163.509 11.78 163.696 11.98C163.896 12.1667 164.222 12.2933 164.676 12.36C164.996 12.4 165.762 12.42 166.976 12.42C168.402 12.42 169.336 12.3133 169.776 12.1C170.149 11.9 170.336 11.5467 170.336 11.04C170.336 10.5333 170.109 10.2 169.656 10.04ZM185.86 8.08H185.44C185.12 8.08 184.873 8.02667 184.7 7.92C184.54 7.81333 184.373 7.6 184.2 7.28C184.013 6.96 183.687 6.74 183.22 6.62C182.767 6.5 182.02 6.44 180.98 6.44C180.02 6.44 179.32 6.48667 178.88 6.58C178.453 6.67333 178.127 6.85333 177.9 7.12C177.54 7.52 177.36 8.25333 177.36 9.32C177.36 10.4667 177.58 11.24 178.02 11.64C178.247 11.8533 178.593 12 179.06 12.08C179.527 12.1467 180.313 12.18 181.42 12.18C182.833 12.18 183.713 11.9867 184.06 11.6C184.113 11.5333 184.273 11.3067 184.54 10.92C184.78 10.5867 185.127 10.4267 185.58 10.44H185.98C186.3 10.44 186.56 10.54 186.76 10.74C186.973 10.9267 187.08 11.1733 187.08 11.48C187.08 12 186.86 12.4933 186.42 12.96C186.207 13.2133 185.913 13.4333 185.54 13.62C184.767 13.9933 183.353 14.18 181.3 14.18C178.793 14.18 177.133 13.9533 176.32 13.5C175.733 13.1667 175.313 12.6733 175.06 12.02C174.807 11.3667 174.68 10.4667 174.68 9.32C174.68 7.12 175.213 5.72667 176.28 5.14C177.107 4.67333 178.753 4.44 181.22 4.44C182.847 4.44 184.06 4.56 184.86 4.8C185.66 5.02667 186.247 5.42667 186.62 6C186.847 6.34667 186.96 6.69333 186.96 7.04C186.96 7.34667 186.853 7.6 186.64 7.8C186.44 7.98667 186.18 8.08 185.86 8.08ZM199.407 9.82H191.087C191.114 10.9933 191.347 11.7267 191.787 12.02C192.24 12.3 193.36 12.44 195.147 12.44C196.214 12.44 196.98 12.3333 197.447 12.12C197.567 12.0667 197.66 12.0133 197.727 11.96C197.794 11.8933 197.907 11.7467 198.067 11.52C198.307 11.2267 198.654 11.08 199.107 11.08H199.427C199.694 11.08 199.927 11.18 200.127 11.38C200.34 11.58 200.447 11.8067 200.447 12.06C200.447 12.54 200.24 12.94 199.827 13.26C199.4 13.5933 198.827 13.8267 198.107 13.96C197.4 14.0933 196.374 14.16 195.027 14.16C192.667 14.16 191.114 13.9933 190.367 13.66C189.634 13.3267 189.12 12.84 188.827 12.2C188.534 11.56 188.387 10.6133 188.387 9.36C188.387 7.46667 188.767 6.16667 189.527 5.46C189.94 5.07333 190.52 4.81333 191.267 4.68C192.027 4.53333 193.247 4.46 194.927 4.46C196.594 4.46 197.794 4.58 198.527 4.82C199.26 5.04667 199.82 5.48 200.207 6.12C200.554 6.73333 200.727 7.55333 200.727 8.58C200.727 9.00667 200.62 9.32 200.407 9.52C200.194 9.72 199.86 9.82 199.407 9.82ZM191.087 8.26H198.127C198.127 7.78 198.047 7.38667 197.887 7.08C197.7 6.74667 197.38 6.51333 196.927 6.38C196.487 6.24667 195.787 6.18 194.827 6.18C193.32 6.18 192.334 6.3 191.867 6.54C191.347 6.84667 191.087 7.38 191.087 8.14V8.26Z" fill="black"/>
</svg>
