<svg width="40" height="40" viewBox="0 0 40 40" fill="none" xmlns="http://www.w3.org/2000/svg">
<path d="M29.6516 9.60348L29.6659 9.59709L29.6797 9.58982C29.9801 9.43231 30.1763 9.50274 30.2929 9.63329C30.4405 9.7987 30.5919 10.2077 30.4319 10.9516L30.4303 10.9592L30.4289 10.9668L26.9597 29.9157L26.9594 29.9172C26.8458 30.5488 26.651 30.7641 26.5364 30.8239C26.4491 30.8694 26.2441 30.9033 25.8322 30.6477L20.5753 26.1473L20.2021 25.8278L19.8761 26.1952L17.3367 29.0572L17.3355 29.0586L17.3325 29.0619C17.2811 29.1194 17.2371 29.1686 17.1977 29.2113L17.5006 23.9654L27.1758 13.8452C27.1763 13.8446 27.1769 13.8441 27.1774 13.8435C27.3183 13.6981 27.4664 13.4887 27.4748 13.2297C27.4794 13.0884 27.4406 12.9449 27.3514 12.8218C27.2652 12.7027 27.1515 12.6294 27.0452 12.5871C26.8418 12.5062 26.6226 12.5187 26.441 12.5623C26.2493 12.6084 26.052 12.6996 25.8638 12.8324L25.8637 12.8323L25.8568 12.8374L13.9693 21.5301L8.98887 19.7295L8.98639 19.7286C8.48964 19.5519 8.50007 19.3655 8.5004 19.3618C8.50656 19.2908 8.62287 19.0148 9.28156 18.7075L29.6516 9.60348Z" stroke="black"/>
<rect x="0.5" y="0.5" width="39" height="39" rx="2.5" stroke="black"/>
</svg>
