<svg width="40" height="40" viewBox="0 0 40 40" fill="none" xmlns="http://www.w3.org/2000/svg">
<path d="M33.8222 10.4128L33.826 10.3973C33.9215 9.99935 33.8874 9.77566 33.8301 9.67284C33.7993 9.61755 33.7094 9.5 33.3211 9.5H30.0379C29.7442 9.5 29.5643 9.5921 29.4341 9.71576C29.2907 9.85185 29.1768 10.0567 29.085 10.3222L29.0849 10.3226L29.0809 10.3345L29.0659 10.3797C29.0527 10.4191 29.0332 10.4769 29.0076 10.5513C28.9564 10.7 28.8809 10.9153 28.7831 11.1837C28.5874 11.7204 28.3018 12.4701 27.9415 13.3246C27.2236 15.0269 26.198 17.1715 24.9832 18.8722L24.976 18.8823L24.9683 18.8921C24.5868 19.3734 24.2809 19.7274 24.0029 19.9602C23.708 20.2071 23.407 20.3494 23.0478 20.3494C22.6921 20.3494 22.4263 20.1024 22.2761 19.8286C22.1205 19.5449 22.0373 19.1588 22.0373 18.6717V10.514C22.0373 10.003 21.9736 9.74315 21.9001 9.61964C21.8713 9.5712 21.8447 9.55037 21.8172 9.53667C21.7842 9.52023 21.7201 9.5 21.6001 9.5H16.441C16.3511 9.5 16.2792 9.53669 16.2177 9.6132C16.1497 9.69789 16.1056 9.82235 16.1056 9.9467C16.1056 10.0822 16.1421 10.1983 16.2302 10.3582C16.2771 10.4433 16.334 10.5328 16.4067 10.6456L16.4189 10.6646C16.4864 10.7694 16.5644 10.8906 16.6436 11.0257C16.9947 11.6252 17.3449 12.4603 17.4091 13.941L17.4096 13.9518V13.9626V20.026C17.4096 20.6834 17.3673 21.1761 17.2196 21.5109C17.1369 21.6985 17.0097 21.8646 16.8187 21.9728C16.6363 22.076 16.448 22.0963 16.3003 22.0963C15.9832 22.0963 15.7051 21.9234 15.4953 21.7501C15.2705 21.5645 15.0408 21.3083 14.8112 21.0064C14.3502 20.4003 13.8417 19.5465 13.3264 18.525C12.2938 16.4782 11.2039 13.6983 10.3925 10.7346L33.8222 10.4128ZM33.8222 10.4128L33.8195 10.4286C33.7266 10.9646 33.4213 11.8081 32.9879 12.8082C32.5602 13.7951 32.0265 14.8934 31.5028 15.9223C30.9796 16.9502 30.4689 17.904 30.0889 18.601C29.9905 18.7813 29.901 18.9443 29.8223 19.0869M33.8222 10.4128L29.8223 19.0869M29.8223 19.0869L29.7963 19.0544L29.4475 19.7591C29.283 20.0916 29.1097 20.4429 29.0845 20.8323C29.0577 21.2486 29.1986 21.6358 29.466 22.07C29.6602 22.407 30.0435 22.878 30.4357 23.3599L30.4815 23.4162C30.9099 23.9428 31.3733 24.5144 31.742 25.0601L31.7419 25.0601L31.7484 25.0693C32.4507 26.0599 33.0595 26.9641 33.5278 27.7594C33.9985 28.5587 34.3082 29.217 34.4387 29.7241C34.5567 30.2367 34.4835 30.5059 34.3967 30.6323C34.3211 30.7423 34.1575 30.8544 33.7882 30.8544H30.5065C30.2896 30.8544 30.128 30.8037 29.9661 30.6972C29.7884 30.5805 29.5953 30.3868 29.3418 30.0679C29.1372 29.8106 28.9135 29.4984 28.6384 29.1147C28.5728 29.0232 28.5043 28.9276 28.4325 28.8278C28.0634 28.3148 27.6179 27.7057 27.0544 26.9987L27.0544 26.9986L27.0486 26.9915C26.0635 25.8012 25.3365 25.099 24.7739 24.6918C24.2011 24.2773 23.7705 24.1487 23.3951 24.1487C23.0251 24.1487 22.5746 24.2115 22.2971 24.6439C22.178 24.8294 22.1174 25.0462 22.0831 25.2681C22.0484 25.4924 22.0358 25.7569 22.0358 26.0612V29.7541C22.0358 30.2472 21.9638 30.4356 21.8243 30.5531C21.6472 30.7023 21.2261 30.8563 20.1928 30.8563C16.9675 30.8563 13.2851 28.3817 10.6187 23.5795L10.6187 23.5794L10.6162 23.575C8.5985 20.0274 7.31637 16.9167 6.53963 14.5636C5.7561 12.1899 5.5 10.6274 5.5 10.1646C5.5 9.89271 5.54593 9.74001 5.60807 9.65875C5.64861 9.60575 5.75733 9.50188 6.12584 9.50188H9.40753C9.71879 9.50188 9.85408 9.57918 9.96008 9.70168C10.1026 9.86633 10.2368 10.1673 10.3925 10.7343L29.8223 19.0869ZM29.4654 19.7262C29.4646 19.7276 29.4648 19.7272 29.4655 19.726L29.4654 19.7262Z" stroke="black"/>
<rect x="0.5" y="0.5" width="39" height="39" rx="2.5" stroke="black"/>
</svg>
